<?xml version="1.0" encoding="UTF-8" standalone="no"?>
<!-- Created with Inkscape (http://www.inkscape.org/) -->

<svg
   version="1.1"
   id="svg182"
   width="179.68401"
   height="188.97638"
   viewBox="0 0 179.684 188.97638"
   sodipodi:docname="S464.svg"
   inkscape:version="1.2.1 (9c6d41e410, 2022-07-14)"
   xmlns:inkscape="http://www.inkscape.org/namespaces/inkscape"
   xmlns:sodipodi="http://sodipodi.sourceforge.net/DTD/sodipodi-0.dtd"
   xmlns="http://www.w3.org/2000/svg"
   xmlns:svg="http://www.w3.org/2000/svg">
  <defs
     id="defs186" />
  <sodipodi:namedview
     id="namedview184"
     pagecolor="#ffffff"
     bordercolor="#666666"
     borderopacity="1.0"
     inkscape:showpageshadow="2"
     inkscape:pageopacity="0.0"
     inkscape:pagecheckerboard="0"
     inkscape:deskcolor="#d1d1d1"
     showgrid="false"
     inkscape:zoom="7.4454594"
     inkscape:cx="15.982896"
     inkscape:cy="83.137919"
     inkscape:window-width="2560"
     inkscape:window-height="1377"
     inkscape:window-x="-8"
     inkscape:window-y="-8"
     inkscape:window-maximized="1"
     inkscape:current-layer="g188" />
  <g
     inkscape:groupmode="layer"
     inkscape:label="Image"
     id="g188"
     transform="translate(-20.298717)">
    <path
       style="fill:none;stroke-width:0.296579;stroke:#000000;stroke-opacity:1;fill-opacity:1"
       d="m 131.33948,188.35352 c -2.16136,-1.06986 -3.995,-3.42524 -6.2745,-8.05983 -5.86232,-11.91905 -9.00122,-26.71938 -12.5124,-58.99769 -0.36737,-3.37726 -0.76121,-6.08283 -0.87521,-6.01238 -0.11399,0.0704 -0.29742,0.83176 -0.40762,1.69179 -0.35227,2.74912 -2.25506,10.87658 -3.48466,14.88416 -2.88481,9.40231 -7.01278,17.82861 -11.490551,23.45533 -3.325519,4.1788 -8.357627,8.34281 -12.694384,10.50445 -8.770125,4.37142 -17.187247,4.69286 -24.647834,0.94128 -5.654065,-2.84317 -9.66005,-7.1104 -12.700414,-13.52867 -2.158041,-4.55567 -2.584077,-6.5895 -2.607831,-12.44943 -0.01909,-4.71152 0.03299,-5.20981 0.795153,-7.60565 1.689928,-5.31229 0.889965,-6.91515 -4.279653,-8.57505 -8.079674,-2.59428 -14.97313,-9.35384 -18.148599,-17.79609 -2.278298,-6.05705 -2.283343,-13.419195 -0.0131,-19.090199 3.505585,-8.756798 13.217224,-15.874765 24.296254,-17.807493 7.583255,-1.32289 17.135518,-0.624691 26.336362,1.924993 1.150946,0.318942 2.126187,0.546335 2.167205,0.505318 0.04101,-0.04102 -1.346253,-1.206963 -3.082822,-2.590995 C 65.4589,64.761402 59.482673,58.12267 56.217638,52.53215 54.348597,49.331911 52.713436,45.174133 51.868242,41.472793 50.94966,37.450051 50.818291,31.218383 51.579516,27.776472 53.785922,17.800081 60.727869,10.786921 70.967734,8.1893661 c 8.85208,-2.2455138 17.870586,-0.5469646 24.81887,4.6743959 1.719222,1.291927 2.280516,1.551739 3.558948,1.647372 1.997348,0.149412 3.264618,-0.554177 4.689718,-2.603745 C 109.15765,4.5404797 118.22001,0.00968656 127.85206,2.0559937e-5 133.8367,-0.00598516 138.43939,1.3034846 142.88448,4.2767571 c 5.48275,3.6673521 9.09543,9.2251109 10.94391,16.8361589 0.90188,3.713438 0.9883,11.192018 0.17598,15.228143 -1.26058,6.263356 -4.58448,14.005035 -8.90133,20.732055 -1.22994,1.916641 -2.21133,3.484234 -2.18085,3.483533 0.0305,-6.18e-4 2.12404,-1.043118 4.65238,-2.316492 5.34918,-2.694071 9.18071,-4.126248 14.11052,-5.274327 3.13083,-0.729127 4.13054,-0.82515 8.72605,-0.838153 4.75992,-0.01347 5.45722,0.05461 8.41223,0.82131 5.93437,1.539709 10.31804,3.851254 13.84103,7.2985 11.85795,11.603001 8.87112,33.772695 -5.81581,43.167815 -1.9978,1.27798 -2.79223,2.51062 -2.7937,4.33477 -9.3e-4,1.14504 0.24276,1.74426 1.48023,3.63988 1.97946,3.03223 2.7534,4.61367 3.64982,7.45797 1.40562,4.45991 1.70193,8.61931 0.96048,13.48211 -1.79529,11.77442 -9.66855,20.45577 -20.47572,22.57732 -3.05874,0.60046 -9.15869,0.47441 -12.64036,-0.26119 -14.72276,-3.11062 -27.87885,-15.81167 -39.24389,-37.88653 l -1.6796,-3.26237 0.17935,1.63119 c 0.29207,2.65633 2.74593,14.56444 4.18637,20.31566 4.70106,18.76973 10.255,33.68404 15.449,41.48603 2.45203,3.68323 2.89221,4.81454 2.20723,5.6728 -0.56682,0.71023 -5.45401,6.37379 -5.49976,6.37344 -0.0169,-1.3e-4 -0.59674,-0.28041 -1.28856,-0.62286 z"
       id="path300" />
    <path
       style="color:#000000;fill:#000000;stroke-linejoin:round;-inkscape-stroke:none"
       d="m 102.80469,21.634766 c -0.3037,1.281792 -0.48259,2.957694 -0.58789,4.628906 -0.21061,3.342424 -0.125,6.662109 -0.125,6.662109 -1.6e-4,0.0046 -1.6e-4,0.0091 0,0.01367 l 0.99804,10.689453 c -3e-5,0.002 -3e-5,0.0039 0,0.0059 0,0 0.82925,7.057815 1.3086,10.792968 0.36668,2.857189 0.19116,1.951819 1.4082,8.894532 1.18805,6.7773 1.88699,10.234635 2.25781,11.382812 0.0464,0.143522 0.088,0.252467 0.13086,0.335938 0.0214,0.04174 0.0425,0.07646 0.0762,0.113281 0.0337,0.03682 0.0953,0.09324 0.19532,0.08398 0.10002,-0.0092 0.15739,-0.08208 0.18164,-0.126953 0.0243,-0.04487 0.0338,-0.08342 0.043,-0.126953 0.0184,-0.08707 0.0279,-0.192402 0.0332,-0.326172 0.021,-0.535078 -0.0325,-1.520221 -0.13867,-2.869141 -0.42474,-5.395679 -1.72655,-16.513898 -2.86719,-25.896484 -0.32769,-2.695485 -0.47853,-5.115623 -0.69422,-7.297728 -0.0798,-0.807743 -0.16857,-1.582869 -0.27844,-2.327272 -0.55277,-3.933821 -0.53779,-7.822386 -0.44863,-11.836788 0.022,-0.991881 0.13983,-2.683497 0.22056,-3.730431 0.0659,-0.854418 0.11501,-1.073294 0.002,-1.831579 -0.19532,-1.309164 -1.56373,1.7299 -1.71526,2.765952 z m 1.2832,-1.730469 c -0.32218,3.647784 -0.60129,10.425196 0.2832,16.417969 0.40207,2.724104 0.52149,5.906035 0.97266,9.617187 1.14049,9.381304 2.44401,20.503051 2.86719,25.878906 0.0838,1.06422 0.10033,1.687897 0.10742,2.236328 -0.36183,-1.236502 -1.00926,-4.3429 -2.14063,-10.796875 -1.21693,-6.942103 -1.03694,-6.016514 -1.40429,-8.878906 -0.47854,-3.728796 -1.308,-10.780122 -1.3086,-10.785156 v -0.0039 l -0.99609,-10.6836 v -0.002 c -3.4e-4,-0.0136 -0.0838,-3.303607 0.125,-6.617188 0.10461,-1.660212 0.2839,-3.322636 0.57813,-4.564453 0.14711,-0.620908 0.32533,-1.138189 0.52539,-1.486328 0.12851,-0.223652 0.23551,-0.403758 0.39062,-0.332031 1e-5,7e-6 0,4.7e-5 0,4.7e-5 z"
       id="path418"
       sodipodi:nodetypes="csccccssccsccsccsscssscssccssccccssscas" />
  </g>
</svg>
